<!DOCTYPE svg PUBLIC "-//W3C//DTD SVG 1.1//EN" "http://www.w3.org/Graphics/SVG/1.1/DTD/svg11.dtd">

<!-- Uploaded to: SVG Repo, www.svgrepo.com, Transformed by: SVG Repo Mixer Tools -->
<svg fill="#cb1f57" height="64px" width="64px" version="1.1" id="Layer_1" xmlns="http://www.w3.org/2000/svg" xmlns:xlink="http://www.w3.org/1999/xlink" viewBox="0 0 512 512" xml:space="preserve">

<g id="SVGRepo_bgCarrier" stroke-width="0"/>

<g id="SVGRepo_tracerCarrier" stroke-linecap="round" stroke-linejoin="round"/>

<g id="SVGRepo_iconCarrier"> <g> <g> <path d="M368.08,90.944l-67.065-9.744l-29.992-60.771c-6.116-12.393-23.836-12.386-29.949,0l-29.992,60.771l-67.065,9.744 c-13.676,1.987-19.145,18.842-9.254,28.483l48.529,47.304l-11.457,66.794c-2.337,13.618,12.003,24.034,24.229,17.604 l59.984-31.535l59.984,31.535c12.127,6.377,26.583-3.879,24.229-17.604l-11.456-66.794l48.529-47.304 C387.231,109.78,381.748,92.931,368.08,90.944z"/> </g> </g> <g> <g> <path d="M120.435,253.713H16.699C7.477,253.713,0,261.189,0,270.411v213.754c0,9.222,7.477,16.699,16.699,16.699h103.736 c9.222,0,16.699-7.476,16.699-16.699V270.411C137.134,261.189,129.657,253.713,120.435,253.713z"/> </g> </g> <g> <g> <path d="M501.108,326.303c-18.077-22.784-51.249-26.096-73.456-7.46l-79.113,66.383c-24.799,0-44.492,0-67.177,0l35.938-30.155 c27.34-22.941,12.375-68.954-24.879-68.954H170.532v198.715c8.896,7.193,20.04,11.154,31.496,11.154h156.498 c11.757,0,23.192-4.161,32.201-11.719l102.571-86.061C514.766,380.19,518.272,347.935,501.108,326.303z"/> </g> </g> </g>

</svg>