<!DOCTYPE svg PUBLIC "-//W3C//DTD SVG 1.1//EN" "http://www.w3.org/Graphics/SVG/1.1/DTD/svg11.dtd">

<!-- Uploaded to: SVG Repo, www.svgrepo.com, Transformed by: SVG Repo Mixer Tools -->
<svg fill="#cb1f57" width="64px" height="64px" viewBox="0 0 32 32" version="1.1" xmlns="http://www.w3.org/2000/svg">

<g id="SVGRepo_bgCarrier" stroke-width="0"/>

<g id="SVGRepo_tracerCarrier" stroke-linecap="round" stroke-linejoin="round"/>

<g id="SVGRepo_iconCarrier"> <title>gamepad-cross</title> <path d="M11.43 20.643l9.246-9.246zM20.676 20.643l-9.246-9.246zM20.445 11.629v-9.548h-8.823v9.548h-9.508v8.823h9.508v9.508h8.823v-9.508h9.548v-8.823h-9.548zM6.557 18.79c-1.53 0-2.771-1.24-2.771-2.771s1.24-2.771 2.771-2.771 2.771 1.24 2.771 2.771-1.241 2.771-2.771 2.771zM16.053 28.286c-1.53 0-2.771-1.24-2.771-2.771s1.24-2.771 2.771-2.771 2.771 1.24 2.771 2.771-1.24 2.771-2.771 2.771zM16.053 9.295c-1.53 0-2.771-1.24-2.771-2.771s1.24-2.771 2.771-2.771 2.771 1.24 2.771 2.771-1.24 2.771-2.771 2.771zM25.548 18.79c-1.53 0-2.771-1.24-2.771-2.771s1.24-2.771 2.771-2.771c1.53 0 2.771 1.24 2.771 2.771s-1.241 2.771-2.771 2.771z"/> </g>

</svg>